<svg width="24" height="24" viewBox="0 0 24 24" fill="none" xmlns="http://www.w3.org/2000/svg">
<path d="M19.3652 12.56L14.3852 17.56C14.2252 17.72 14.0251 17.8 13.8251 17.8C13.6251 17.8 13.4251 17.72 13.2652 17.56C12.9451 17.24 12.9451 16.74 13.2652 16.42L16.8852 12.78H5.20515C4.76515 12.78 4.40515 12.42 4.40515 11.98C4.40515 11.54 4.76515 11.18 5.20515 11.18H16.8852L13.2652 7.54004C12.9451 7.22004 12.9451 6.72003 13.2652 6.40003C13.5851 6.08003 14.0852 6.08003 14.4052 6.40003L19.3852 11.4C19.6852 11.74 19.6852 12.26 19.3652 12.56Z" fill="black"/>
</svg>
